<svg width="441" height="333" viewBox="0 0 441 333" fill="none" xmlns="http://www.w3.org/2000/svg">
    <path d="M207.239 279.546C207.239 279.546 212.852 270.345 220.058 275.785C227.264 281.226 240.61 290.405 240.61 290.405C240.61 290.405 243.343 296.276 236.268 294.071C229.194 291.865 206.099 288.316 206.099 288.316L207.239 279.546Z" fill="#FEB8B8"/>
    <path d="M50.3825 221.111C52.1711 206.74 61.0847 192.58 74.8015 187.903C69.392 202.695 69.3932 218.923 74.8048 233.714C76.9125 239.411 79.8505 245.528 77.8679 251.269C76.6344 254.842 73.6166 257.575 70.2434 259.284C66.87 260.993 63.1262 261.808 59.4293 262.606L58.7017 263.207C52.8329 249.966 48.5939 235.483 50.3825 221.111Z" fill="#F0F0F0"/>
    <path d="M74.9374 188.175C66.9494 197.118 61.9847 208.349 60.7483 220.272C60.4365 222.834 60.5309 225.429 61.0279 227.962C61.5918 230.414 62.8025 232.67 64.534 234.495C66.1143 236.23 67.9319 237.822 69.0626 239.911C69.6255 240.988 69.9541 242.173 70.0267 243.386C70.0994 244.6 69.9146 245.815 69.4843 246.952C68.486 249.813 66.5184 252.145 64.5149 254.358C62.2905 256.816 59.9409 259.334 58.9954 262.593C58.8808 262.987 58.2744 262.787 58.3888 262.392C60.0339 256.723 65.5416 253.503 68.1682 248.397C69.3938 246.014 69.9083 243.248 68.7593 240.733C67.7545 238.534 65.8817 236.891 64.2664 235.148C62.551 233.391 61.2922 231.242 60.5999 228.887C59.9755 226.388 59.7812 223.801 60.0255 221.236C60.4832 215.454 61.848 209.78 64.0697 204.422C66.5714 198.292 70.104 192.636 74.5148 187.696C74.7879 187.391 75.2088 187.872 74.9374 188.175Z" fill="white"/>
    <path d="M60.9204 216.41C58.9466 215.931 57.2073 214.766 56.0133 213.125C54.8192 211.483 54.2482 209.47 54.4021 207.446C54.4346 207.037 55.0728 207.068 55.0402 207.478C54.8934 209.363 55.4256 211.237 56.5406 212.764C57.6556 214.29 59.28 215.369 61.1207 215.804C61.5206 215.899 61.318 216.504 60.9204 216.41Z" fill="white"/>
    <path d="M63.617 233.721C67.1821 231.594 69.8138 228.203 70.9875 224.223C71.1035 223.829 71.7099 224.029 71.5941 224.423C70.365 228.562 67.6191 232.086 63.9043 234.291C63.5501 234.501 63.2647 233.93 63.617 233.721Z" fill="white"/>
    <path d="M67.1642 198.897C67.8893 199.241 68.6886 199.4 69.4904 199.36C70.2922 199.319 71.0713 199.08 71.7578 198.664C72.1091 198.45 72.3941 199.021 72.0451 199.234C71.2845 199.69 70.4237 199.953 69.538 200C68.6522 200.047 67.7685 199.876 66.9639 199.503C66.8852 199.474 66.8203 199.417 66.7826 199.342C66.7449 199.267 66.7371 199.18 66.7608 199.1C66.7877 199.02 66.8452 198.954 66.9207 198.916C66.9963 198.878 67.0838 198.871 67.1642 198.897Z" fill="white"/>
    <path d="M116.612 213.572C116.396 213.712 116.181 213.852 115.965 213.998C113.076 215.896 110.346 218.025 107.803 220.365C107.603 220.543 107.404 220.726 107.21 220.909C101.142 226.612 96.1858 233.39 92.5942 240.9C91.1678 243.89 89.9711 246.984 89.0144 250.155C87.6934 254.534 86.6099 259.388 83.9952 262.97C83.7266 263.347 83.4349 263.707 83.1217 264.048H59.4921C59.4384 264.021 59.3844 263.999 59.3304 263.972L58.387 264.015C58.4249 263.848 58.4678 263.676 58.5057 263.509C58.5272 263.412 58.5541 263.315 58.5757 263.218C58.5918 263.153 58.6081 263.089 58.6189 263.029C58.6241 263.008 58.6297 262.986 58.6349 262.97C58.6457 262.911 58.6621 262.857 58.6728 262.803C58.91 261.839 59.1544 260.875 59.406 259.91C59.406 259.905 59.406 259.905 59.4112 259.9C61.3469 252.557 63.9129 245.312 67.498 238.686C67.606 238.487 67.7136 238.282 67.8324 238.083C69.4649 235.105 71.3383 232.266 73.4339 229.593C74.586 228.133 75.8114 226.733 77.1053 225.397C80.4552 221.951 84.3266 219.053 88.5777 216.81C97.0527 212.339 106.865 210.626 115.922 213.357C116.154 213.427 116.38 213.497 116.612 213.572Z" fill="#F0F0F0"/>
    <path d="M116.559 213.872C104.792 216.207 94.061 222.187 85.8896 230.964C84.0969 232.822 82.6085 234.951 81.4793 237.272C80.4524 239.568 80.0597 242.098 80.3421 244.598C80.5585 246.933 81.0506 249.298 80.695 251.646C80.4951 252.845 80.0438 253.988 79.3706 255.001C78.6975 256.013 77.8178 256.872 76.7891 257.521C74.2681 259.205 71.292 259.883 68.3584 260.445C65.1014 261.07 61.7083 261.667 58.99 263.699C58.6606 263.946 58.2974 263.421 58.6262 263.175C63.3557 259.638 69.6936 260.38 74.8675 257.883C77.2818 256.718 79.3593 254.819 79.9573 252.12C80.4803 249.759 79.975 247.321 79.7354 244.957C79.4241 242.523 79.7142 240.049 80.5802 237.753C81.5875 235.382 82.9914 233.199 84.7315 231.299C88.5809 226.957 93.0895 223.248 98.0921 220.306C103.783 216.917 110.012 214.526 116.51 213.235C116.912 213.156 116.958 213.793 116.559 213.872H116.559Z" fill="white"/>
    <path d="M88.3543 227.983C87.0668 226.413 86.3797 224.437 86.4156 222.408C86.4516 220.379 87.2083 218.428 88.5506 216.905C88.8232 216.598 89.3139 217.007 89.0409 217.314C87.7884 218.73 87.0837 220.547 87.0541 222.437C87.0245 224.327 87.6719 226.165 88.8794 227.619C89.1415 227.936 88.6149 228.297 88.3543 227.983H88.3543Z" fill="white"/>
    <path d="M80.0763 243.428C84.2044 243.874 88.3492 242.749 91.6843 240.278C92.0145 240.033 92.3778 240.558 92.048 240.803C88.5726 243.368 84.2569 244.53 79.9621 244.056C79.5528 244.01 79.6692 243.382 80.0763 243.428Z" fill="white"/>
    <path d="M103.892 217.756C104.263 218.467 104.806 219.075 105.47 219.525C106.135 219.975 106.901 220.253 107.7 220.334C108.109 220.374 107.993 221.002 107.586 220.962C106.704 220.868 105.858 220.56 105.122 220.065C104.387 219.57 103.784 218.902 103.367 218.12C103.321 218.049 103.304 217.964 103.319 217.882C103.334 217.799 103.38 217.726 103.447 217.676C103.517 217.628 103.603 217.61 103.686 217.625C103.769 217.64 103.843 217.687 103.892 217.756Z" fill="white"/>
    <path d="M240.957 316.36C241.65 310.79 245.105 305.303 250.421 303.49C248.324 309.223 248.325 315.512 250.422 321.244C251.239 323.452 252.378 325.823 251.609 328.048C251.059 329.423 250.001 330.535 248.654 331.154C247.318 331.76 245.91 332.193 244.463 332.441L244.181 332.674C241.907 327.543 240.264 321.93 240.957 316.36Z" fill="#F0F0F0"/>
    <path d="M250.473 303.595C247.378 307.061 245.454 311.414 244.974 316.035C244.854 317.028 244.89 318.033 245.083 319.015C245.301 319.965 245.77 320.839 246.442 321.547C247.109 322.173 247.699 322.878 248.197 323.646C248.415 324.063 248.542 324.522 248.57 324.993C248.598 325.463 248.527 325.934 248.36 326.374C247.917 327.45 247.262 328.427 246.434 329.245C245.572 330.197 244.662 331.173 244.295 332.436C244.251 332.589 244.016 332.511 244.06 332.358C244.698 330.161 246.832 328.913 247.85 326.934C248.112 326.49 248.269 325.991 248.309 325.476C248.349 324.961 248.27 324.444 248.079 323.964C247.617 323.155 247.03 322.424 246.338 321.8C245.673 321.119 245.185 320.286 244.917 319.373C244.675 318.405 244.6 317.402 244.694 316.408C244.872 314.168 245.401 311.969 246.262 309.892C247.231 307.516 248.6 305.324 250.31 303.41C250.416 303.291 250.579 303.478 250.473 303.595H250.473Z" fill="white"/>
    <path d="M245.041 314.538C244.276 314.352 243.602 313.901 243.139 313.265C242.677 312.628 242.455 311.848 242.515 311.064C242.528 310.905 242.775 310.917 242.762 311.076C242.705 311.807 242.912 312.533 243.344 313.125C243.776 313.716 244.405 314.134 245.119 314.303C245.274 314.34 245.195 314.574 245.041 314.538H245.041Z" fill="white"/>
    <path d="M246.086 321.247C247.468 320.423 248.488 319.108 248.942 317.566C248.987 317.413 249.222 317.491 249.178 317.643C248.701 319.248 247.637 320.613 246.197 321.468C246.06 321.549 245.95 321.328 246.086 321.247Z" fill="white"/>
    <path d="M247.461 307.751C247.742 307.884 248.052 307.946 248.362 307.93C248.673 307.914 248.975 307.822 249.241 307.66C249.377 307.577 249.488 307.799 249.352 307.881C249.058 308.058 248.724 308.16 248.381 308.178C248.038 308.196 247.695 308.13 247.383 307.986C247.353 307.974 247.328 307.952 247.313 307.923C247.298 307.894 247.295 307.861 247.305 307.829C247.315 307.798 247.337 307.773 247.367 307.758C247.396 307.743 247.43 307.741 247.461 307.751L247.461 307.751Z" fill="white"/>
    <path d="M266.625 313.438C266.541 313.492 266.457 313.547 266.374 313.603C265.254 314.339 264.196 315.164 263.211 316.071C263.133 316.14 263.056 316.211 262.981 316.282C260.629 318.492 258.708 321.119 257.316 324.029C256.764 325.188 256.3 326.387 255.929 327.616C255.417 329.313 254.997 331.194 253.984 332.582C253.88 332.728 253.767 332.868 253.645 333H244.488C244.467 332.99 244.446 332.981 244.425 332.971L244.059 332.987C244.074 332.923 244.091 332.856 244.105 332.791C244.114 332.754 244.124 332.716 244.132 332.678C244.139 332.653 244.145 332.628 244.149 332.605C244.151 332.597 244.153 332.589 244.155 332.582C244.16 332.559 244.166 332.539 244.17 332.518C244.262 332.144 244.357 331.77 244.454 331.397L244.456 331.392C245.172 328.538 246.224 325.778 247.59 323.171C247.632 323.094 247.674 323.014 247.72 322.937C248.353 321.783 249.079 320.683 249.891 319.647C250.337 319.081 250.812 318.538 251.314 318.021C252.612 316.685 254.112 315.562 255.76 314.693C259.044 312.96 262.847 312.296 266.357 313.355C266.447 313.382 266.535 313.409 266.625 313.438Z" fill="#F0F0F0"/>
    <path d="M266.604 313.554C262.044 314.459 257.885 316.777 254.718 320.178C254.023 320.898 253.446 321.723 253.009 322.623C252.611 323.513 252.459 324.493 252.568 325.462C252.724 326.364 252.77 327.281 252.705 328.194C252.627 328.658 252.452 329.101 252.192 329.494C251.931 329.886 251.59 330.219 251.191 330.471C250.189 331.063 249.078 331.449 247.924 331.604C246.661 331.846 245.346 332.077 244.293 332.865C244.165 332.961 244.024 332.757 244.152 332.662C245.985 331.291 248.441 331.579 250.446 330.611C250.924 330.414 251.35 330.11 251.692 329.723C252.034 329.335 252.282 328.875 252.419 328.377C252.538 327.453 252.509 326.516 252.333 325.601C252.212 324.658 252.325 323.699 252.66 322.809C253.051 321.89 253.595 321.045 254.269 320.308C255.761 318.626 257.508 317.188 259.447 316.048C261.653 314.734 264.067 313.808 266.585 313.308C266.741 313.277 266.759 313.524 266.604 313.554H266.604Z" fill="white"/>
    <path d="M255.673 319.023C255.174 318.415 254.908 317.649 254.922 316.862C254.936 316.076 255.229 315.32 255.749 314.73C255.855 314.611 256.045 314.769 255.939 314.888C255.454 315.437 255.181 316.141 255.169 316.874C255.158 317.606 255.409 318.318 255.877 318.882C255.978 319.005 255.774 319.145 255.673 319.023Z" fill="white"/>
    <path d="M252.465 325.009C254.065 325.182 255.671 324.746 256.964 323.788C257.092 323.693 257.233 323.896 257.105 323.991C255.758 324.986 254.085 325.436 252.421 325.252C252.262 325.234 252.307 324.991 252.465 325.009H252.465Z" fill="white"/>
    <path d="M261.695 315.06C261.839 315.335 262.049 315.571 262.306 315.745C262.564 315.92 262.861 316.027 263.171 316.059C263.329 316.074 263.284 316.317 263.126 316.302C262.784 316.266 262.457 316.146 262.172 315.954C261.887 315.762 261.653 315.504 261.491 315.201C261.474 315.173 261.467 315.14 261.473 315.108C261.479 315.076 261.496 315.048 261.522 315.028C261.55 315.01 261.583 315.003 261.615 315.009C261.647 315.015 261.676 315.033 261.695 315.06Z" fill="white"/>
    <path d="M398.296 198.053C395.546 175.963 381.846 154.199 360.762 147.01C369.077 169.747 369.075 194.688 360.757 217.423C357.518 226.18 353.002 235.582 356.049 244.407C357.945 249.898 362.584 254.099 367.768 256.726C372.953 259.353 378.708 260.605 384.39 261.832L385.509 262.756C394.529 242.403 401.045 220.142 398.296 198.053Z" fill="#F0F0F0"/>
    <path d="M360.553 147.428C372.831 161.174 380.462 178.436 382.362 196.763C382.746 200.691 382.792 204.71 381.933 208.583C381.066 212.351 379.205 215.818 376.544 218.625C374.115 221.291 371.321 223.738 369.583 226.948C367.751 230.332 367.681 234.176 368.935 237.77C370.469 242.168 373.494 245.752 376.573 249.155C379.992 252.933 383.603 256.803 385.057 261.811C385.233 262.418 386.165 262.109 385.989 261.503C383.46 252.79 374.995 247.84 370.958 239.992C369.074 236.329 368.283 232.078 370.049 228.212C371.594 224.831 374.472 222.306 376.955 219.627C379.562 216.814 381.561 213.728 382.591 210.004C383.644 206.195 383.755 202.166 383.473 198.245C382.77 189.358 380.672 180.636 377.257 172.4C373.412 162.979 367.982 154.284 361.203 146.692C360.783 146.223 360.136 146.962 360.553 147.428L360.553 147.428Z" fill="white"/>
    <path d="M382.098 190.826C385.132 190.09 387.805 188.3 389.641 185.777C391.476 183.253 392.354 180.16 392.117 177.049C392.067 176.42 391.086 176.468 391.136 177.098C391.362 179.994 390.544 182.875 388.83 185.222C387.116 187.568 384.619 189.226 381.79 189.894C381.176 190.04 381.487 190.971 382.098 190.826H382.098Z" fill="white"/>
    <path d="M377.953 217.435C372.474 214.165 368.429 208.953 366.624 202.836C366.446 202.229 365.514 202.538 365.692 203.143C367.581 209.505 371.802 214.921 377.512 218.311C378.056 218.634 378.495 217.756 377.953 217.435Z" fill="white"/>
    <path d="M372.501 163.908C371.387 164.437 370.158 164.682 368.926 164.619C367.693 164.557 366.496 164.189 365.441 163.55C364.9 163.221 364.462 164.099 364.999 164.426C366.168 165.127 367.491 165.531 368.852 165.603C370.214 165.675 371.572 165.413 372.809 164.84C372.93 164.795 373.03 164.707 373.088 164.592C373.146 164.477 373.158 164.344 373.121 164.22C373.08 164.097 372.991 163.995 372.875 163.937C372.759 163.878 372.625 163.868 372.501 163.908Z" fill="white"/>
    <path d="M296.497 186.465C296.829 186.68 297.16 186.895 297.492 187.119C301.932 190.036 306.128 193.309 310.037 196.906C310.344 197.179 310.651 197.46 310.949 197.742C320.276 206.507 327.893 216.925 333.414 228.469C335.606 233.064 337.446 237.819 338.916 242.694C340.946 249.425 342.612 256.885 346.631 262.392C347.044 262.971 347.492 263.524 347.973 264.048H384.293C384.376 264.006 384.459 263.973 384.542 263.932L385.992 263.998C385.934 263.741 385.868 263.476 385.809 263.22C385.776 263.071 385.735 262.922 385.702 262.772C385.677 262.673 385.652 262.574 385.635 262.483C385.627 262.45 385.619 262.416 385.611 262.392C385.594 262.301 385.569 262.218 385.552 262.135C385.188 260.653 384.812 259.171 384.426 257.689C384.426 257.68 384.426 257.68 384.417 257.672C381.442 246.386 377.498 235.25 371.988 225.066C371.822 224.759 371.656 224.445 371.474 224.138C368.964 219.561 366.085 215.197 362.864 211.089C361.093 208.845 359.21 206.693 357.221 204.639C352.072 199.343 346.121 194.889 339.587 191.441C326.561 184.569 311.479 181.936 297.558 186.133C297.202 186.241 296.853 186.349 296.497 186.465Z" fill="#F0F0F0"/>
    <path d="M296.579 186.925C314.665 190.514 331.159 199.707 343.719 213.196C346.392 216.102 348.851 219.283 350.498 222.892C352.076 226.422 352.68 230.31 352.246 234.152C351.913 237.742 351.157 241.376 351.704 244.985C352.28 248.789 354.54 251.901 357.707 254.016C361.582 256.604 366.156 257.647 370.665 258.511C375.672 259.47 380.887 260.388 385.065 263.512C385.571 263.891 386.13 263.084 385.624 262.706C378.355 257.27 368.613 258.41 360.661 254.573C356.95 252.782 353.757 249.863 352.837 245.714C352.034 242.085 352.81 238.337 353.179 234.705C353.565 230.891 353.302 227.224 351.88 223.631C350.426 219.956 348.086 216.673 345.499 213.711C339.583 207.038 332.653 201.336 324.963 196.815C316.216 191.606 306.642 187.93 296.655 185.947C296.036 185.824 295.965 186.804 296.579 186.925V186.925Z" fill="white"/>
    <path d="M339.931 208.615C341.91 206.202 342.966 203.165 342.911 200.045C342.855 196.926 341.692 193.928 339.629 191.587C339.21 191.115 338.456 191.743 338.876 192.216C340.801 194.393 341.884 197.186 341.929 200.09C341.975 202.995 340.98 205.82 339.124 208.056C338.721 208.542 339.53 209.098 339.931 208.615L339.931 208.615Z" fill="white"/>
    <path d="M352.655 232.354C346.31 233.04 339.939 231.311 334.813 227.512C334.305 227.136 333.747 227.943 334.253 228.319C339.595 232.262 346.229 234.047 352.83 233.319C353.459 233.249 353.28 232.284 352.655 232.354Z" fill="white"/>
    <path d="M316.049 192.896C315.478 193.989 314.644 194.923 313.623 195.614C312.601 196.306 311.423 196.733 310.196 196.857C309.566 196.919 309.746 197.884 310.371 197.823C311.727 197.679 313.027 197.206 314.157 196.444C315.288 195.683 316.214 194.656 316.856 193.454C316.926 193.346 316.952 193.215 316.929 193.089C316.906 192.962 316.836 192.849 316.732 192.772C316.625 192.698 316.493 192.67 316.365 192.693C316.237 192.717 316.124 192.789 316.049 192.896V192.896Z" fill="white"/>
    <path d="M440.637 264.586H0.53912C0.396136 264.586 0.259009 264.53 0.157904 264.429C0.0567995 264.328 0 264.19 0 264.048C0 263.905 0.0567995 263.768 0.157904 263.667C0.259009 263.566 0.396136 263.509 0.53912 263.509H440.461C440.604 263.509 440.741 263.566 440.842 263.667C440.943 263.768 441 263.905 441 264.048C441 264.345 440.935 264.586 440.637 264.586Z" fill="#CACACA"/>
    <path d="M154.365 311.991H57.1468C57.0038 311.991 56.8667 311.934 56.7656 311.833C56.6645 311.732 56.6077 311.595 56.6077 311.452C56.6077 311.31 56.6645 311.173 56.7656 311.071C56.8667 310.97 57.0038 310.914 57.1468 310.914H154.188C154.331 310.914 154.468 310.97 154.57 311.071C154.671 311.173 154.727 311.31 154.727 311.452C154.727 311.75 154.662 311.991 154.365 311.991Z" fill="#CACACA"/>
    <path d="M306.935 333H209.718C209.575 333 209.437 332.943 209.336 332.842C209.235 332.741 209.178 332.604 209.178 332.461C209.178 332.318 209.235 332.181 209.336 332.08C209.437 331.979 209.575 331.923 209.718 331.923H306.759C306.902 331.923 307.039 331.979 307.14 332.08C307.241 332.181 307.298 332.318 307.298 332.461C307.298 332.759 307.233 333 306.935 333Z" fill="#CACACA"/>
    <path d="M398.586 311.452H301.368C301.225 311.452 301.088 311.396 300.987 311.295C300.886 311.194 300.829 311.057 300.829 310.914C300.829 310.771 300.886 310.634 300.987 310.533C301.088 310.432 301.225 310.375 301.368 310.375H398.41C398.553 310.375 398.69 310.432 398.791 310.533C398.892 310.634 398.949 310.771 398.949 310.914C398.949 311.211 398.883 311.452 398.586 311.452Z" fill="#CACACA"/>
    <path d="M179.666 290.982C173.627 290.982 168.098 290.404 163.705 289.037C158.484 287.413 155.205 284.786 153.96 281.223C153.375 279.71 153.2 278.07 153.453 276.468C153.707 274.866 154.379 273.36 155.403 272.102C163.127 262.045 189.932 259.208 193.528 258.873L200.825 245.068C201.292 241.774 199.083 239.28 202.899 239.218L248.042 238.606C251.79 238.527 250.726 240.846 251.368 244.057L258.246 256.326L228.645 268.809L233.12 279.706L232.828 279.875C224.165 284.896 199.25 290.981 179.666 290.982Z" fill="#2F2E41"/>
    <path d="M254.148 256.849C254.148 256.849 295.488 252.122 292.792 271.031C290.096 289.939 258.641 303.333 211.011 271.031L216.403 261.576C216.403 261.576 234.152 260.694 244.936 255.967L254.148 256.849Z" fill="#2F2E41"/>
    <path d="M195.622 171.187C195.622 171.187 187.764 169.759 185.622 181.893C183.479 194.026 180.046 222.766 180.046 222.766L169.388 259.685C168.131 260.352 167.09 261.362 166.386 262.598C165.682 263.834 165.345 265.245 165.413 266.665C165.482 268.085 165.954 269.457 166.773 270.62C167.593 271.782 168.726 272.688 170.042 273.231C171.357 273.774 172.8 273.931 174.202 273.685C175.603 273.439 176.906 272.8 177.958 271.842C179.01 270.884 179.767 269.647 180.141 268.275C180.515 266.902 180.491 265.452 180.071 264.094L194.332 224.91L197.05 191.174V173.496C197.05 173.017 196.916 172.547 196.664 172.139C196.412 171.731 196.051 171.401 195.622 171.187Z" fill="#FEB8B8"/>
    <path d="M250.927 171.187C250.927 171.187 258.784 169.759 260.927 181.893C263.07 194.026 266.502 222.766 266.502 222.766L277.16 259.685C278.417 260.352 279.458 261.362 280.162 262.598C280.866 263.834 281.203 265.245 281.135 266.665C281.066 268.085 280.595 269.457 279.775 270.62C278.955 271.782 277.822 272.688 276.506 273.231C275.191 273.774 273.748 273.931 272.346 273.685C270.945 273.439 269.642 272.8 268.59 271.842C267.539 270.884 266.781 269.647 266.407 268.275C266.033 266.902 266.057 265.452 266.477 264.094L252.216 224.91L249.498 191.174V173.496C249.498 173.017 249.632 172.547 249.884 172.139C250.136 171.731 250.497 171.401 250.927 171.187Z" fill="#FEB8B8"/>
    <path d="M250.328 161.158L235.466 155.603L206.659 155.232L194.259 161.158L197.742 181.157C197.742 181.157 190.71 193.054 198.452 204.952L200.19 247.348C200.19 247.348 227.963 263.441 251.406 244.116L246.107 204.698C246.107 204.698 254.97 186.409 248.101 179.615L250.328 161.158Z" fill="#C3ACFA"/>
    <path d="M244.275 167.373L250.328 161.158C250.328 161.158 263.539 168.101 263.267 191.324L246.602 186.192L244.275 167.373Z" fill="#C3ACFA"/>
    <path d="M200.984 167.373L194.553 160.946C194.553 160.946 183.205 169.717 183.477 192.94L198.657 186.192L200.984 167.373Z" fill="#C3ACFA"/>
    <path d="M242.908 274.952C242.908 274.952 238.279 265.219 230.548 269.885C222.817 274.551 208.592 282.3 208.592 282.3C208.592 282.3 205.265 287.857 212.53 286.395C219.795 284.934 243.133 283.793 243.133 283.793L242.908 274.952Z" fill="#FEB8B8"/>
    <path d="M230.047 100.977C230.112 100.914 230.181 100.858 230.245 100.793C234.382 96.6599 235.221 90.7958 232.118 87.6957C229.186 84.7659 223.785 85.3572 219.709 88.9193C216.214 85.5943 211.527 84.6674 208.493 86.9627C204.995 89.6095 205.023 95.533 208.555 100.193C208.796 100.512 209.05 100.814 209.311 101.104C204.611 102.824 200.553 105.944 197.686 110.043C194.818 114.142 193.281 119.023 193.281 124.024V147.252C193.281 147.933 193.415 148.608 193.676 149.237C193.937 149.866 194.319 150.438 194.801 150.92C195.283 151.401 195.856 151.784 196.485 152.044C197.115 152.305 197.79 152.439 198.472 152.439H241.437C242.768 152.439 244.044 151.911 244.985 150.971C245.926 150.031 246.454 148.756 246.454 147.426V124.024C246.453 118.955 244.873 114.013 241.933 109.883C238.993 105.753 234.838 102.64 230.047 100.977Z" fill="#2F2E41"/>
    <path d="M234.963 144.155C242.925 136.199 242.925 123.3 234.963 115.344C227.001 107.388 214.092 107.388 206.129 115.344C198.167 123.3 198.167 136.199 206.129 144.155C214.092 152.11 227.001 152.11 234.963 144.155Z" fill="#FFB6B6"/>
    <path d="M199.123 116.935C203.782 120.144 209.312 121.852 214.97 121.829C212.952 123.227 210.654 124.172 208.235 124.598C215.758 126.21 223.534 126.254 231.075 124.726C232.751 124.457 234.368 123.902 235.856 123.085C236.597 122.671 237.243 122.106 237.751 121.427C238.26 120.748 238.62 119.969 238.807 119.141C239.308 116.281 237.078 113.682 234.759 111.931C231.21 109.29 227.118 107.471 222.779 106.605C218.44 105.738 213.962 105.846 209.67 106.921C206.867 107.645 204.059 108.868 202.239 111.117C200.419 113.366 199.879 116.833 201.614 119.149L199.123 116.935Z" fill="#2F2E41"/>
    <path d="M90.0705 76.2822L90.713 75.4167L107.83 88.1028C106.899 85.27 103.607 76.29 98.2096 72.7069C91.7616 68.4264 87.2251 69.7579 84.7535 73.475C82.2819 77.1921 82.8112 81.8867 89.2592 86.1675C94.7249 89.7961 104.462 89.2916 107.302 89.0537L90.0705 76.2822Z" fill="#F2F2F2"/>
    <path d="M347.607 6.82636L348.401 7.55492L333.994 23.2456C336.91 22.6158 346.191 20.2778 350.319 15.2867C355.25 9.32405 354.397 4.67722 350.954 1.83441C347.511 -1.0084 342.783 -0.970752 337.852 4.99195C333.671 10.0463 333.161 19.775 333.102 22.6229L347.607 6.82636Z" fill="#F2F2F2"/>
    <path d="M115.246 174.359L116.041 175.088L101.633 190.778C104.549 190.149 113.83 187.811 117.958 182.82C122.89 176.857 122.036 172.21 118.593 169.367C115.151 166.524 110.423 166.562 105.491 172.525C101.311 177.579 100.8 187.308 100.741 190.156L115.246 174.359Z" fill="#F2F2F2"/>
    <path d="M237.075 24.8067L238.008 25.3465L227.335 43.7777C230.046 42.533 238.602 38.246 241.553 32.4815C245.078 25.5948 243.239 21.2421 239.263 19.2099C235.287 17.1778 230.679 18.2356 227.153 25.1223C224.165 30.96 225.771 40.569 226.33 43.3622L237.075 24.8067Z" fill="#F2F2F2"/>
    <path d="M336.812 140.087L337.745 140.626L327.072 159.058C329.783 157.813 338.339 153.526 341.29 147.761C344.815 140.875 342.977 136.522 339 134.49C335.024 132.458 330.416 133.515 326.891 140.402C323.902 146.24 325.508 155.849 326.067 158.642L336.812 140.087Z" fill="#F2F2F2"/>
</svg>
