<svg width="58" height="58" viewBox="0 0 58 58" fill="none" xmlns="http://www.w3.org/2000/svg">
    <g filter="url(#filter0_d_16_177)">
        <path d="M5 28C5 14.7452 15.7452 4 29 4C42.2548 4 53 14.7452 53 28C53 41.2548 42.2548 52 29 52C15.7452 52 5 41.2548 5 28Z" fill="white"/>
    </g>
    <path d="M29 21.6213C30.9528 21.6213 32.2702 22.4649 33.0213 23.1698L35.9564 20.304C34.1537 18.6284 31.808 17.6 29 17.6C24.9324 17.6 21.4195 19.9342 19.7093 23.3315L23.072 25.9431C23.9155 23.4355 26.2497 21.6213 29 21.6213Z" fill="#EA4335"/>
    <path d="M38.984 28.2311C38.984 27.376 38.9147 26.752 38.7644 26.1049H29V29.9644H34.7316C34.616 30.9235 33.992 32.368 32.6053 33.3386L35.8871 35.8809C37.8516 34.0666 38.984 31.3973 38.984 28.2311Z" fill="#4285F4"/>
    <path d="M23.0835 30.0569C22.864 29.4098 22.7369 28.7164 22.7369 28C22.7369 27.2835 22.864 26.5902 23.072 25.9431L19.7093 23.3315C19.0044 24.7413 18.6 26.3244 18.6 28C18.6 29.6755 19.0044 31.2587 19.7093 32.6684L23.0835 30.0569Z" fill="#FBBC05"/>
    <path d="M29 38.4C31.808 38.4 34.1653 37.4756 35.8871 35.8809L32.6053 33.3387C31.7271 33.9511 30.5484 34.3787 29 34.3787C26.2498 34.3787 23.9156 32.5644 23.0836 30.0569L19.7209 32.6684C21.4311 36.0658 24.9324 38.4 29 38.4Z" fill="#34A853"/>
    <defs>
        <filter id="filter0_d_16_177" x="0" y="0" width="58" height="58" filterUnits="userSpaceOnUse" color-interpolation-filters="sRGB">
            <feFlood flood-opacity="0" result="BackgroundImageFix"/>
            <feColorMatrix in="SourceAlpha" type="matrix" values="0 0 0 0 0 0 0 0 0 0 0 0 0 0 0 0 0 0 127 0" result="hardAlpha"/>
            <feOffset dy="1"/>
            <feGaussianBlur stdDeviation="2.5"/>
            <feComposite in2="hardAlpha" operator="out"/>
            <feColorMatrix type="matrix" values="0 0 0 0 0 0 0 0 0 0 0 0 0 0 0 0 0 0 0.15 0"/>
            <feBlend mode="normal" in2="BackgroundImageFix" result="effect1_dropShadow_16_177"/>
            <feBlend mode="normal" in="SourceGraphic" in2="effect1_dropShadow_16_177" result="shape"/>
        </filter>
    </defs>
</svg>
