<svg width="48" height="48" viewBox="0 0 48 48" fill="none" xmlns="http://www.w3.org/2000/svg">
    <path d="M24 0C37.2548 0 48 10.7452 48 24C48 37.2548 37.2548 48 24 48C10.7452 48 0 37.2548 0 24C0 10.7452 10.7452 0 24 0Z" fill="#FADEAA"/>
    <path d="M30.3941 20.9584C30.2774 20.0101 29.9859 19.2655 29.4683 18.6059C28.7962 17.7566 27.9372 17.2481 26.6655 16.9464C25.8368 16.7453 25.5019 16.7684 25.2022 17.0422C24.923 17.2987 24.8685 17.8129 25.0819 18.146C25.2319 18.3877 25.405 18.4742 25.8864 18.5687C26.5275 18.6867 26.9706 18.8398 27.3736 19.0702C28.2291 19.5642 28.6274 20.3371 28.6701 21.5885C28.69 22.176 28.7408 22.3566 28.946 22.565C29.3264 22.9459 30.0033 22.8719 30.2904 22.416C30.3958 22.2442 30.4118 22.1694 30.423 21.7705C30.4303 21.5235 30.4197 21.1558 30.3941 20.9584Z" fill="white"/>
    <path d="M33.7447 22.0277C33.5757 19.1224 32.4393 16.7848 30.4055 15.1402C29.2597 14.2161 27.8746 13.5807 26.3563 13.2716C25.8001 13.1611 24.7762 13.0715 24.6005 13.1228C24.4347 13.1702 24.2003 13.3497 24.0958 13.512C23.9853 13.688 23.9604 14.0811 24.0546 14.3084C24.2068 14.6884 24.4899 14.8227 25.2826 14.892C26.5047 14.9989 27.7652 15.4283 28.7176 16.064C29.805 16.7877 30.6693 17.7776 31.2285 18.9408C31.7116 19.9402 32.0087 21.3805 32.0005 22.6703C31.9978 23.1368 32.0698 23.4002 32.2574 23.5929C32.5406 23.889 32.9533 23.9538 33.3176 23.7571C33.7213 23.5447 33.8157 23.1721 33.7447 22.0277Z" fill="white"/>
    <path d="M37.4522 33.2164C37.3954 33.0503 37.2628 32.7941 37.1681 32.6471C36.5712 31.7458 33.3645 29.2363 31.7635 28.4155C30.8493 27.9459 30.172 27.7894 29.6699 27.9364C29.1299 28.0883 28.8457 28.3396 27.941 29.464C27.5763 29.9146 27.2021 30.3369 27.1026 30.4032C26.8563 30.574 26.3731 30.7116 26.0321 30.7116C25.2411 30.7068 23.8059 30.1945 22.7022 29.5209C21.8449 28.9991 20.746 28.0646 19.9028 27.1395C18.9081 26.0532 18.2308 25.0949 17.6955 24.0133C17.004 22.6234 16.8287 21.7742 17.1176 21.1527C17.1887 20.9962 17.2835 20.8302 17.326 20.7779C17.3687 20.7306 17.814 20.3652 18.3065 19.9667C19.2729 19.1983 19.4292 19.0228 19.6091 18.4962C19.8365 17.8272 19.775 17.1441 19.4244 16.4563C19.1544 15.9345 18.4487 14.796 17.9371 14.0607C17.2598 13.093 15.5735 11.0246 15.2371 10.7447C14.6309 10.2514 13.8541 10.1659 12.9967 10.4981C12.0921 10.8491 10.3963 12.2153 9.67155 13.1688C9.01789 14.0322 8.76692 14.6441 8.72899 15.4506C8.69586 16.1147 8.75268 16.3899 9.1032 17.239C11.8457 23.8994 15.9382 29.2173 21.5607 33.4394C24.4974 35.6452 27.5431 37.3246 30.7025 38.4726C32.545 39.1415 33.3455 39.1746 34.2881 38.6244C34.686 38.3872 35.6712 37.3767 36.2207 36.6415C37.1301 35.4175 37.4665 34.853 37.5612 34.4023C37.6275 34.094 37.5754 33.558 37.4522 33.2164Z" fill="white"/>
    <path d="M37.1554 22.695C37.0948 21.0516 36.8181 19.7035 36.2411 18.2006C35.6714 16.7222 35.0949 15.7575 34.0062 14.4527C32.9768 13.2293 32.1773 12.5307 30.9092 11.7531C29.1401 10.6697 26.9871 9.95278 24.5743 9.65126C23.7515 9.54588 23.5654 9.55341 23.3129 9.72185C22.8237 10.0409 22.8303 10.8368 23.321 11.1511C23.4834 11.2511 23.6276 11.2875 24.2858 11.3737C25.2961 11.5097 25.9458 11.6379 26.7167 11.8482C29.7397 12.6746 32.0645 14.3638 33.6186 16.8712C34.9193 18.9612 35.4592 21.0514 35.3825 23.7208C35.3558 24.6233 35.3752 24.7821 35.5132 24.9989C35.7774 25.4031 36.474 25.483 36.8315 25.1477C37.0538 24.9433 37.0958 24.7898 37.1396 24.0174C37.1606 23.6145 37.1651 23.0197 37.1554 22.695Z" fill="white"/>
</svg>
